<?xml version="1.0" encoding="utf-8"?><svg xmlns="http://www.w3.org/2000/svg" xmlns:xlink="http://www.w3.org/1999/xlink"><symbol fill="none" viewBox="0 0 24 24" id="arrow-right" xmlns="http://www.w3.org/2000/svg"><path d="M14.43 5.93 20.5 12l-6.07 6.07M3.5 12h16.83" stroke="currentColor" stroke-width="2.5" stroke-miterlimit="10" stroke-linecap="round" stroke-linejoin="round"/></symbol><symbol fill="none" viewBox="0 0 16 16" id="arrow-select" xmlns="http://www.w3.org/2000/svg"><g clip-path="url(#ba)"><path d="M16 5.327a1.144 1.144 0 0 1-.423.892L8.721 11.74a1.143 1.143 0 0 1-1.452 0L.413 6.025a1.145 1.145 0 0 1 1.463-1.76L8 9.373l6.125-4.938A1.143 1.143 0 0 1 16 5.327Z" fill="currentColor"/></g><defs><clipPath id="ba"><path fill="#fff" d="M0 0h16v16H0z"/></clipPath></defs></symbol><symbol fill="none" viewBox="0 0 24 24" id="burger-menu" xmlns="http://www.w3.org/2000/svg"><path d="M0 4v2.667h24V4H0Zm0 7v2.667h24V11H0Zm0 7v2.667h24V18H0Z" fill="currentColor"/></symbol><symbol fill="none" viewBox="0 0 24 24" id="clip" xmlns="http://www.w3.org/2000/svg"><path fill-rule="evenodd" clip-rule="evenodd" d="M12.217 3.088a3.566 3.566 0 0 1 6.176 3.566L12.558 16.76a2.593 2.593 0 0 1-4.491-2.593l4.619-8.001a.648.648 0 1 1 1.123.648l-4.62 8.001a1.297 1.297 0 0 0 2.246 1.297L17.27 6.005a2.27 2.27 0 0 0-3.93-2.269L6.37 15.808a3.242 3.242 0 0 0 5.615 3.241l5.754-9.966a.648.648 0 1 1 1.123.649l-5.754 9.966a4.538 4.538 0 1 1-7.86-4.539l6.97-12.071Z" fill="currentColor"/></symbol><symbol fill="none" viewBox="0 0 24 24" id="close" xmlns="http://www.w3.org/2000/svg"><path d="m2.572 4.458 1.886-1.886L12 10.115l7.543-7.543 1.885 1.886L13.886 12l7.542 7.543-1.885 1.885L12 13.886l-7.542 7.542-1.886-1.885L10.115 12 2.572 4.458Z" fill="currentColor"/></symbol><symbol fill="none" viewBox="0 0 24 24" id="eye" xmlns="http://www.w3.org/2000/svg"><path d="M15.58 12c0 1.98-1.6 3.58-3.58 3.58S8.42 13.98 8.42 12s1.6-3.58 3.58-3.58 3.58 1.6 3.58 3.58Z" stroke="#024FFA" stroke-width="1.5" stroke-linecap="round" stroke-linejoin="round"/><path d="M12 20.27c3.53 0 6.82-2.08 9.11-5.68.9-1.41.9-3.78 0-5.19-2.29-3.6-5.58-5.68-9.11-5.68-3.53 0-6.82 2.08-9.11 5.68-.9 1.41-.9 3.78 0 5.19 2.29 3.6 5.58 5.68 9.11 5.68Z" stroke="#024FFA" stroke-width="1.5" stroke-linecap="round" stroke-linejoin="round"/></symbol></svg>